/vscmnt/brussel_pixiu_data/_data_brussel/112/vsc11236/PredSimResults/SUBJ07mtu3D/worker1.mot
version=1
nRows=9
nColumns=50
inDegrees=yes
endheader
                time	         pelvis_tilt	         pelvis_list	     pelvis_rotation	           pelvis_tx	           pelvis_ty	           pelvis_tz	       hip_flexion_r	     hip_adduction_r	      hip_rotation_r	        knee_angle_r	       ankle_angle_r	         mtp_angle_r	       hip_flexion_l	     hip_adduction_l	      hip_rotation_l	        knee_angle_l	       ankle_angle_l	         mtp_angle_l	    lumbar_extension	      lumbar_bending	     lumbar_rotation	 ercspn_r/activation	 intobl_r/activation	 extobl_r/activation	    abd_r/activation	    add_r/activation	hamstrings_r/activation	bifemsh_r/activation	glut_max_r/activation	iliopsoas_r/activation	rect_fem_r/activation	  vasti_r/activation	gastroc_r/activation	 soleus_r/activation	tib_ant_r/activation	 ercspn_l/activation	 intobl_l/activation	 extobl_l/activation	    abd_l/activation	    add_l/activation	hamstrings_l/activation	bifemsh_l/activation	glut_max_l/activation	iliopsoas_l/activation	rect_fem_l/activation	  vasti_l/activation	gastroc_l/activation	 soleus_l/activation	tib_ant_l/activation	
          1.65929741	         -4.09042834	          0.31512722	         -8.19306376	          2.02434284	          0.84929975	          0.01266396	        -14.52664969	         -0.25422702	          3.50244856	         -9.21022441	          7.86511042	         28.35154673	         29.85143669	         -2.16320867	         -4.34039927	         -6.70741030	          2.04794516	          0.27026307	        -10.62822631	          1.42568652	          1.34279193	          0.12345783	          0.01000025	          0.01000024	          0.03202783	          0.01087243	          0.01654358	          0.13542745	          0.01661509	          0.12705760	          0.01184462	          0.01090315	          0.13661773	          0.29569023	          0.01708572	          0.12178906	          0.12971896	          0.01000105	          0.01080738	          0.13720166	          0.06595962	          0.10964305	          0.08439597	          0.03184688	          0.01184331	          0.01000029	          0.01000058	          0.01000033	          0.39675565	
          1.67035939	         -4.09696999	          0.29352378	         -8.22434870	          2.04011385	          0.84781600	          0.01230017	        -14.99704541	         -0.35951888	          3.17995806	        -10.22313928	          6.88641142	         29.88403939	         29.61819471	         -1.95066656	         -4.05160773	         -8.15182160	          1.70265803	          0.25292319	        -10.52240671	          1.02601544	          1.54377049	          0.13341197	          0.01000009	          0.01000084	          0.02704217	          0.02762135	          0.01397948	          0.11434616	          0.01402874	          0.10728376	          0.01000136	          0.01000020	          0.11535094	          0.27715448	          0.01442606	          0.10283078	          0.11874833	          0.01000024	          0.01000052	          0.11584418	          0.06416943	          0.12443929	          0.12759116	          0.02688942	          0.01000051	          0.01000017	          0.01402887	          0.01184372	          0.43438419	
          1.68142138	         -4.09652609	          0.26309357	         -8.20698863	          2.05603539	          0.84653377	          0.01184930	        -15.32287717	         -0.44312109	          2.81603354	        -11.51741683	          5.80335597	         31.34791585	         29.30886131	         -1.79329786	         -3.77856660	         -9.50579805	          1.26532466	          0.24792795	        -10.41375971	          0.63564334	          1.73690029	          0.14667100	          0.01000008	          0.01000027	          0.02283262	          0.02332212	          0.01182272	          0.09654648	          0.01184506	          0.09058484	          0.01000303	          0.01000064	          0.09739466	          0.25453828	          0.01218041	          0.13477023	          0.10026327	          0.01000027	          0.09458124	          0.13486897	          0.06044701	          0.11081690	          0.12298190	          0.02270367	          0.01000024	          0.01000005	          0.01184510	          0.01000009	          0.50781005	
          1.69248336	         -4.09064180	          0.21017397	         -8.14502005	          2.07191784	          0.84561144	          0.01130312	        -15.42179550	         -0.49064999	          2.42519843	        -13.20775592	          4.59637050	         32.68496074	         29.00682872	         -1.65720024	         -3.55587444	        -10.85955355	          0.79486655	          0.22838054	        -10.32298169	          0.26953552	          1.92064907	          0.18348997	          0.01000009	          0.01000025	          0.01927835	          0.03135029	          0.01145121	          0.08151761	          0.01000152	          0.07648466	          0.01000397	          0.01000166	          0.08223357	          0.22395702	          0.01028435	          0.14784198	          0.08465566	          0.01000024	          0.14385565	          0.16067402	          0.05449883	          0.09356673	          0.15075777	          0.01916950	          0.01000038	          0.01000012	          0.01000137	          0.01000011	          0.53636780	
          1.70354534	         -4.07944336	          0.14263745	         -8.04348564	          2.08761955	          0.84519400	          0.01067439	        -15.21839676	         -0.51021310	          2.00996846	        -15.40190732	          3.27944868	         33.75147627	         28.77095638	         -1.53119526	         -3.36674431	        -12.36322407	          0.58183651	          0.20687827	        -10.25821067	         -0.08037678	          2.09278251	          0.22583674	          0.01000008	          0.01000028	          0.01627736	          0.05048070	          0.01243017	          0.06882827	          0.01000019	          0.06457910	          0.01000127	          0.01000027	          0.06943256	          0.18909445	          0.01000007	          0.15598444	          0.07147763	          0.01000019	          0.18651098	          0.18770697	          0.04851584	          0.07900174	          0.17710373	          0.01618549	          0.01000047	          0.01928556	          0.01000042	          0.01000019	          0.53052158	
          1.71460733	         -4.06384274	          0.06435139	         -7.90316864	          2.10302811	          0.84541905	          0.00997587	        -14.64186768	         -0.50630227	          1.55999980	        -18.19789991	          1.86669267	         34.33496094	         28.60054070	         -1.41342135	         -3.21167578	        -14.00675552	          0.69734863	          0.18586612	        -10.22330081	         -0.41553652	          2.25052582	          0.25157512	          0.01000008	          0.01000026	          0.01374353	          0.08306571	          0.01324268	          0.05811428	          0.01000012	          0.05452660	          0.01000101	          0.01000015	          0.05862423	          0.15965876	          0.01000009	          0.16607198	          0.06035097	          0.01000017	          0.20747430	          0.21372592	          0.04626155	          0.06670407	          0.19004619	          0.01366601	          0.01000048	          0.03933996	          0.01000040	          0.01000010	          0.49837181	
          1.72566931	         -4.04483485	         -0.02493403	         -7.72453750	          2.11812753	          0.84632399	          0.00922947	        -13.65255107	         -0.48373454	          1.07561508	        -21.63920381	          0.31809507	         34.27540746	         28.41994962	         -1.29993729	         -3.07893740	        -15.64294986	          1.12182207	          0.17643752	        -10.21061207	         -0.73439288	          2.39043971	          0.26165456	          0.01000009	          0.01000030	          0.01160414	          0.11216638	          0.01365283	          0.04906822	          0.01000010	          0.04603882	          0.01000073	          0.01000009	          0.04949841	          0.13480522	          0.01000007	          0.16727679	          0.05095636	          0.01000016	          0.21400219	          0.22730230	          0.04460025	          0.05632079	          0.19456397	          0.01153877	          0.01000043	          0.05744710	          0.01000038	          0.01000012	          0.43247337	
          1.73673129	         -4.02396149	         -0.12296831	         -7.50816658	          2.13293615	          0.84785415	          0.00845122	        -12.24669197	         -0.45316761	          0.58123429	        -25.67111051	         -1.52545006	         33.57621464	         28.14307240	         -1.18229727	         -2.94336453	        -17.10307397	          1.79699829	          0.20796380	        -10.21062312	         -1.03781832	          2.50936908	          0.27035651	          0.01000008	          0.01000022	          0.01000003	          0.13034919	          0.01159998	          0.04143061	          0.01000007	          0.03887225	          0.01000062	          0.01000004	          0.04179317	          0.11382055	          0.01000006	          0.14159004	          0.04302417	          0.01000015	          0.20686630	          0.22792042	          0.04801168	          0.04755392	          0.18268216	          0.01000042	          0.01000065	          0.08419362	          0.01000065	          0.01000017	          0.36515326	
          1.74779327	         -4.00359199	         -0.22678259	         -7.25430428	          2.14745283	          0.84991169	          0.00763519	        -10.45252057	         -0.42295091	          0.11615303	        -30.16689620	         -3.75820178	         32.14780896	         27.70241447	         -1.05006863	         -2.77207396	        -18.23393315	          2.56537670	          0.30375492	        -10.22073978	         -1.32294151	          2.60794586	          0.26228652	          0.01000007	          0.01000025	          0.01000004	          0.13711093	          0.01002062	          0.03498174	          0.01000006	          0.03282123	          0.01000031	          0.01000002	          0.03528738	          0.09610249	          0.03192783	          0.11954926	          0.03632676	          0.01000017	          0.20632259	          0.21400013	          0.05795090	          0.04015183	          0.15424525	          0.01000033	          0.01000042	          0.10579098	          0.01000040	          0.01000009	          0.31064155	
